<svg
   width="200"
   height="200"
   viewBox="0 0 52.916665 52.916666"
   version="1.1"
   id="logo-cumbre"
   xmlns="http://www.w3.org/2000/svg">
   <defs id="defs1" />
   <g id="layer1">
      <path
         class="st2"
         d="m 13.785081,30.775413 c -2.275416,-2.275417 -2.275416,-6.006042 0,-8.307917 l 12.144375,-12.144375 -0.02646,-0.02646 c -2.275417,-2.2754168 -6.006042,-2.2754168 -8.307917,0 L 5.3977905,22.493955 c -2.275417,2.275416 -2.275417,6.006041 0,8.307916 L 17.595081,42.99916 c 2.275417,2.27542 6.006042,2.27542 8.307917,0 l 0.02646,-0.0265 z"
         id="path10" />
      <path
         class="st3"
         d="M 47.731123,22.467496 35.533831,10.270205 c -2.275417,-2.2754168 -6.006042,-2.2754168 -8.307917,0 l -3.042708,3.042708 9.154583,9.154583 c 2.275417,2.275417 2.275417,6.006042 0,8.307917 L 24.183206,39.93 l 3.042708,3.0427 c 2.275417,2.27542 6.006042,2.27542 8.307917,0 L 47.731123,30.775413 c 2.275416,-2.275417 2.275416,-6.006042 0,-8.307917 z"
         id="path11" />
   </g>
   <style>
      .st2 { fill: var(--color-st2, #007bff); }
      .st3 { fill: var(--color-st3, #0056b3); }
   </style>
</svg>
